<mxfile host="app.diagrams.net" modified="2023-10-25T22:14:07.079Z" agent="Mozilla/5.0 (Windows NT 10.0; Win64; x64) AppleWebKit/537.36 (KHTML, like Gecko) Chrome/118.0.0.0 Safari/537.36" etag="OHzfCYMw5d2gtdpyCmJ6" version="22.0.8" type="github">
  <diagram name="Page-1" id="0783ab3e-0a74-02c8-0abd-f7b4e66b4bec">
    <mxGraphModel dx="794" dy="412" grid="1" gridSize="10" guides="1" tooltips="1" connect="1" arrows="1" fold="1" page="1" pageScale="1" pageWidth="850" pageHeight="1100" background="none" math="0" shadow="0">
      <root>
        <mxCell id="0" />
        <mxCell id="1" parent="0" />
        <mxCell id="1c1d494c118603dd-1" value="3-2 Use Case: Data Analytics High Energy Usage Warning" style="swimlane;html=1;childLayout=stackLayout;startSize=20;rounded=0;shadow=0;comic=0;labelBackgroundColor=none;strokeWidth=1;fontFamily=Verdana;fontSize=12;align=center;" parent="1" vertex="1">
          <mxGeometry x="40" y="20" width="1250" height="1270" as="geometry" />
        </mxCell>
        <mxCell id="1c1d494c118603dd-2" value="Homeowner" style="swimlane;html=1;startSize=20;" parent="1c1d494c118603dd-1" vertex="1">
          <mxGeometry y="20" width="250" height="1250" as="geometry" />
        </mxCell>
        <mxCell id="aOfRyr6UJCpSdVYeR-or-36" style="edgeStyle=orthogonalEdgeStyle;rounded=0;orthogonalLoop=1;jettySize=auto;html=1;exitX=0.5;exitY=1;exitDx=0;exitDy=0;entryX=0.5;entryY=0;entryDx=0;entryDy=0;" parent="1c1d494c118603dd-2" source="60571a20871a0731-4" target="aOfRyr6UJCpSdVYeR-or-33" edge="1">
          <mxGeometry relative="1" as="geometry" />
        </mxCell>
        <mxCell id="aOfRyr6UJCpSdVYeR-or-38" value="[User Logged In]" style="edgeLabel;html=1;align=center;verticalAlign=middle;resizable=0;points=[];" parent="aOfRyr6UJCpSdVYeR-or-36" vertex="1" connectable="0">
          <mxGeometry x="-0.3" y="2" relative="1" as="geometry">
            <mxPoint as="offset" />
          </mxGeometry>
        </mxCell>
        <mxCell id="60571a20871a0731-4" value="" style="ellipse;whiteSpace=wrap;html=1;rounded=0;shadow=0;comic=0;labelBackgroundColor=none;strokeWidth=1;fillColor=#000000;fontFamily=Verdana;fontSize=12;align=center;" parent="1c1d494c118603dd-2" vertex="1">
          <mxGeometry x="100" y="40" width="40" height="40" as="geometry" />
        </mxCell>
        <mxCell id="aOfRyr6UJCpSdVYeR-or-33" value="View Dashboard" style="rounded=1;whiteSpace=wrap;html=1;shadow=0;comic=0;labelBackgroundColor=none;strokeWidth=1;fontFamily=Verdana;fontSize=12;align=center;arcSize=50;" parent="1c1d494c118603dd-2" vertex="1">
          <mxGeometry x="65" y="140" width="110" height="30" as="geometry" />
        </mxCell>
        <mxCell id="aOfRyr6UJCpSdVYeR-or-82" style="edgeStyle=orthogonalEdgeStyle;rounded=0;orthogonalLoop=1;jettySize=auto;html=1;exitX=0.5;exitY=1;exitDx=0;exitDy=0;entryX=0.5;entryY=0;entryDx=0;entryDy=0;" parent="1c1d494c118603dd-2" source="aOfRyr6UJCpSdVYeR-or-72" target="aOfRyr6UJCpSdVYeR-or-81" edge="1">
          <mxGeometry relative="1" as="geometry" />
        </mxCell>
        <mxCell id="aOfRyr6UJCpSdVYeR-or-72" value="View and Navigate Dashboard" style="rounded=1;whiteSpace=wrap;html=1;shadow=0;comic=0;labelBackgroundColor=none;strokeWidth=1;fontFamily=Verdana;fontSize=12;align=center;arcSize=50;" parent="1c1d494c118603dd-2" vertex="1">
          <mxGeometry x="52.5" y="410" width="135" height="30" as="geometry" />
        </mxCell>
        <mxCell id="aOfRyr6UJCpSdVYeR-or-92" style="edgeStyle=orthogonalEdgeStyle;rounded=0;orthogonalLoop=1;jettySize=auto;html=1;exitX=0.5;exitY=1;exitDx=0;exitDy=0;entryX=0.5;entryY=0;entryDx=0;entryDy=0;" parent="1c1d494c118603dd-2" source="aOfRyr6UJCpSdVYeR-or-80" target="aOfRyr6UJCpSdVYeR-or-88" edge="1">
          <mxGeometry relative="1" as="geometry" />
        </mxCell>
        <mxCell id="aOfRyr6UJCpSdVYeR-or-80" value="See Warning with More Detail" style="rounded=1;whiteSpace=wrap;html=1;shadow=0;comic=0;labelBackgroundColor=none;strokeWidth=1;fontFamily=Verdana;fontSize=12;align=center;arcSize=50;" parent="1c1d494c118603dd-2" vertex="1">
          <mxGeometry x="110" y="620" width="130" height="30" as="geometry" />
        </mxCell>
        <mxCell id="aOfRyr6UJCpSdVYeR-or-84" style="edgeStyle=orthogonalEdgeStyle;rounded=0;orthogonalLoop=1;jettySize=auto;html=1;exitX=1;exitY=0.5;exitDx=0;exitDy=0;entryX=0.5;entryY=0;entryDx=0;entryDy=0;" parent="1c1d494c118603dd-2" source="aOfRyr6UJCpSdVYeR-or-81" target="aOfRyr6UJCpSdVYeR-or-80" edge="1">
          <mxGeometry relative="1" as="geometry" />
        </mxCell>
        <mxCell id="aOfRyr6UJCpSdVYeR-or-85" value="[A Device has Usage Warning]" style="edgeLabel;html=1;align=center;verticalAlign=middle;resizable=0;points=[];" parent="aOfRyr6UJCpSdVYeR-or-84" vertex="1" connectable="0">
          <mxGeometry x="0.029" y="3" relative="1" as="geometry">
            <mxPoint x="-8" as="offset" />
          </mxGeometry>
        </mxCell>
        <mxCell id="aOfRyr6UJCpSdVYeR-or-81" value="" style="rhombus;whiteSpace=wrap;html=1;" parent="1c1d494c118603dd-2" vertex="1">
          <mxGeometry x="100" y="510" width="40" height="14" as="geometry" />
        </mxCell>
        <mxCell id="aOfRyr6UJCpSdVYeR-or-88" value="" style="rhombus;whiteSpace=wrap;html=1;" parent="1c1d494c118603dd-2" vertex="1">
          <mxGeometry x="155" y="690" width="40" height="14" as="geometry" />
        </mxCell>
        <mxCell id="aOfRyr6UJCpSdVYeR-or-103" value="Follow Link to Recommendations" style="rounded=1;whiteSpace=wrap;html=1;shadow=0;comic=0;labelBackgroundColor=none;strokeWidth=1;fontFamily=Verdana;fontSize=12;align=center;arcSize=50;" parent="1c1d494c118603dd-2" vertex="1">
          <mxGeometry x="70" y="830" width="125" height="30" as="geometry" />
        </mxCell>
        <mxCell id="aOfRyr6UJCpSdVYeR-or-167" style="edgeStyle=orthogonalEdgeStyle;rounded=0;orthogonalLoop=1;jettySize=auto;html=1;exitX=0.5;exitY=1;exitDx=0;exitDy=0;entryX=0.5;entryY=0;entryDx=0;entryDy=0;" parent="1c1d494c118603dd-2" source="aOfRyr6UJCpSdVYeR-or-162" target="aOfRyr6UJCpSdVYeR-or-164" edge="1">
          <mxGeometry relative="1" as="geometry" />
        </mxCell>
        <mxCell id="aOfRyr6UJCpSdVYeR-or-162" value="View Recommendations" style="rounded=1;whiteSpace=wrap;html=1;shadow=0;comic=0;labelBackgroundColor=none;strokeWidth=1;fontFamily=Verdana;fontSize=12;align=center;arcSize=50;" parent="1c1d494c118603dd-2" vertex="1">
          <mxGeometry x="65" y="930" width="125" height="30" as="geometry" />
        </mxCell>
        <mxCell id="aOfRyr6UJCpSdVYeR-or-164" value="" style="rhombus;whiteSpace=wrap;html=1;" parent="1c1d494c118603dd-2" vertex="1">
          <mxGeometry x="107.5" y="1020" width="40" height="14" as="geometry" />
        </mxCell>
        <mxCell id="1c1d494c118603dd-3" value="Dashboard UI" style="swimlane;html=1;startSize=20;" parent="1c1d494c118603dd-1" vertex="1">
          <mxGeometry x="250" y="20" width="250" height="1250" as="geometry" />
        </mxCell>
        <mxCell id="60571a20871a0731-5" value="" style="shape=mxgraph.bpmn.shape;html=1;verticalLabelPosition=bottom;labelBackgroundColor=#ffffff;verticalAlign=top;perimeter=ellipsePerimeter;outline=end;symbol=terminate;rounded=0;shadow=0;comic=0;strokeWidth=1;fontFamily=Verdana;fontSize=12;align=center;" parent="1c1d494c118603dd-3" vertex="1">
          <mxGeometry x="115.5" y="1170" width="40" height="40" as="geometry" />
        </mxCell>
        <mxCell id="aOfRyr6UJCpSdVYeR-or-42" value="Display Device Data" style="rounded=1;whiteSpace=wrap;html=1;shadow=0;comic=0;labelBackgroundColor=none;strokeWidth=1;fontFamily=Verdana;fontSize=12;align=center;arcSize=50;" parent="1c1d494c118603dd-3" vertex="1">
          <mxGeometry x="83" y="231" width="105" height="30" as="geometry" />
        </mxCell>
        <mxCell id="aOfRyr6UJCpSdVYeR-or-178" style="edgeStyle=orthogonalEdgeStyle;rounded=0;orthogonalLoop=1;jettySize=auto;html=1;exitX=0;exitY=0.5;exitDx=0;exitDy=0;entryX=0.5;entryY=0;entryDx=0;entryDy=0;" parent="1c1d494c118603dd-3" source="aOfRyr6UJCpSdVYeR-or-55" target="aOfRyr6UJCpSdVYeR-or-177" edge="1">
          <mxGeometry relative="1" as="geometry" />
        </mxCell>
        <mxCell id="aOfRyr6UJCpSdVYeR-or-55" value="Display Link to Available Audit" style="rounded=1;whiteSpace=wrap;html=1;shadow=0;comic=0;labelBackgroundColor=none;strokeWidth=1;fontFamily=Verdana;fontSize=12;align=center;arcSize=50;" parent="1c1d494c118603dd-3" vertex="1">
          <mxGeometry x="90.5" y="280" width="105" height="30" as="geometry" />
        </mxCell>
        <mxCell id="aOfRyr6UJCpSdVYeR-or-60" value="" style="html=1;points=[];perimeter=orthogonalPerimeter;fillColor=strokeColor;rotation=90;" parent="1c1d494c118603dd-3" vertex="1">
          <mxGeometry x="50" y="330" width="5" height="80" as="geometry" />
        </mxCell>
        <mxCell id="aOfRyr6UJCpSdVYeR-or-66" style="edgeStyle=orthogonalEdgeStyle;rounded=0;orthogonalLoop=1;jettySize=auto;html=1;exitX=0.5;exitY=0;exitDx=0;exitDy=0;entryX=0.5;entryY=0;entryDx=0;entryDy=0;" parent="1c1d494c118603dd-3" target="aOfRyr6UJCpSdVYeR-or-65" edge="1">
          <mxGeometry relative="1" as="geometry">
            <mxPoint x="50" y="370" as="sourcePoint" />
          </mxGeometry>
        </mxCell>
        <mxCell id="aOfRyr6UJCpSdVYeR-or-65" value="Dashboard Loaded" style="rounded=1;whiteSpace=wrap;html=1;shadow=0;comic=0;labelBackgroundColor=none;strokeWidth=1;fontFamily=Verdana;fontSize=12;align=center;arcSize=50;" parent="1c1d494c118603dd-3" vertex="1">
          <mxGeometry x="72.5" y="410" width="105" height="30" as="geometry" />
        </mxCell>
        <mxCell id="aOfRyr6UJCpSdVYeR-or-78" style="edgeStyle=orthogonalEdgeStyle;rounded=0;orthogonalLoop=1;jettySize=auto;html=1;exitX=0.5;exitY=0;exitDx=0;exitDy=0;exitPerimeter=0;entryX=1;entryY=0.5;entryDx=0;entryDy=0;dashed=1;" parent="1c1d494c118603dd-3" source="aOfRyr6UJCpSdVYeR-or-76" target="aOfRyr6UJCpSdVYeR-or-65" edge="1">
          <mxGeometry relative="1" as="geometry" />
        </mxCell>
        <mxCell id="aOfRyr6UJCpSdVYeR-or-76" value="User can now navigate page, and interact with components" style="shape=note;size=20;whiteSpace=wrap;html=1;" parent="1c1d494c118603dd-3" vertex="1">
          <mxGeometry x="150" y="460" width="100" height="100" as="geometry" />
        </mxCell>
        <mxCell id="aOfRyr6UJCpSdVYeR-or-100" style="edgeStyle=orthogonalEdgeStyle;rounded=0;orthogonalLoop=1;jettySize=auto;html=1;exitX=0.5;exitY=1;exitDx=0;exitDy=0;entryX=0.5;entryY=0;entryDx=0;entryDy=0;" parent="1c1d494c118603dd-3" source="aOfRyr6UJCpSdVYeR-or-94" target="aOfRyr6UJCpSdVYeR-or-98" edge="1">
          <mxGeometry relative="1" as="geometry" />
        </mxCell>
        <mxCell id="aOfRyr6UJCpSdVYeR-or-101" value="[View Warning Message]" style="edgeLabel;html=1;align=center;verticalAlign=middle;resizable=0;points=[];" parent="aOfRyr6UJCpSdVYeR-or-100" vertex="1" connectable="0">
          <mxGeometry x="-0.0345" y="-1" relative="1" as="geometry">
            <mxPoint as="offset" />
          </mxGeometry>
        </mxCell>
        <mxCell id="aOfRyr6UJCpSdVYeR-or-94" value="View Device Graph" style="rounded=1;whiteSpace=wrap;html=1;shadow=0;comic=0;labelBackgroundColor=none;strokeWidth=1;fontFamily=Verdana;fontSize=12;align=center;arcSize=50;" parent="1c1d494c118603dd-3" vertex="1">
          <mxGeometry x="80" y="682" width="110" height="30" as="geometry" />
        </mxCell>
        <mxCell id="aOfRyr6UJCpSdVYeR-or-104" style="edgeStyle=orthogonalEdgeStyle;rounded=0;orthogonalLoop=1;jettySize=auto;html=1;exitX=0.5;exitY=1;exitDx=0;exitDy=0;entryX=0.5;entryY=0;entryDx=0;entryDy=0;" parent="1c1d494c118603dd-3" source="aOfRyr6UJCpSdVYeR-or-98" target="aOfRyr6UJCpSdVYeR-or-102" edge="1">
          <mxGeometry relative="1" as="geometry" />
        </mxCell>
        <mxCell id="aOfRyr6UJCpSdVYeR-or-98" value="View Warning" style="rounded=1;whiteSpace=wrap;html=1;shadow=0;comic=0;labelBackgroundColor=none;strokeWidth=1;fontFamily=Verdana;fontSize=12;align=center;arcSize=50;" parent="1c1d494c118603dd-3" vertex="1">
          <mxGeometry x="80" y="770" width="110" height="30" as="geometry" />
        </mxCell>
        <mxCell id="aOfRyr6UJCpSdVYeR-or-102" value="Link to Recommendations" style="rounded=1;whiteSpace=wrap;html=1;shadow=0;comic=0;labelBackgroundColor=none;strokeWidth=1;fontFamily=Verdana;fontSize=12;align=center;arcSize=50;" parent="1c1d494c118603dd-3" vertex="1">
          <mxGeometry x="75.5" y="830" width="120" height="30" as="geometry" />
        </mxCell>
        <mxCell id="aOfRyr6UJCpSdVYeR-or-160" value="Display Recommendations for Device" style="rounded=1;whiteSpace=wrap;html=1;shadow=0;comic=0;labelBackgroundColor=none;strokeWidth=1;fontFamily=Verdana;fontSize=12;align=center;arcSize=50;" parent="1c1d494c118603dd-3" vertex="1">
          <mxGeometry x="48" y="930" width="173.75" height="30" as="geometry" />
        </mxCell>
        <mxCell id="aOfRyr6UJCpSdVYeR-or-171" style="edgeStyle=orthogonalEdgeStyle;rounded=0;orthogonalLoop=1;jettySize=auto;html=1;exitX=0.5;exitY=1;exitDx=0;exitDy=0;entryX=0.5;entryY=0;entryDx=0;entryDy=0;" parent="1c1d494c118603dd-3" source="aOfRyr6UJCpSdVYeR-or-170" target="60571a20871a0731-5" edge="1">
          <mxGeometry relative="1" as="geometry" />
        </mxCell>
        <mxCell id="aOfRyr6UJCpSdVYeR-or-170" value="" style="rhombus;whiteSpace=wrap;html=1;" parent="1c1d494c118603dd-3" vertex="1">
          <mxGeometry x="114.88" y="1120" width="40" height="14" as="geometry" />
        </mxCell>
        <mxCell id="aOfRyr6UJCpSdVYeR-or-179" style="edgeStyle=orthogonalEdgeStyle;rounded=0;orthogonalLoop=1;jettySize=auto;html=1;exitX=0.5;exitY=1;exitDx=0;exitDy=0;" parent="1c1d494c118603dd-3" source="aOfRyr6UJCpSdVYeR-or-177" edge="1">
          <mxGeometry relative="1" as="geometry">
            <mxPoint x="70.33333333333326" y="370" as="targetPoint" />
          </mxGeometry>
        </mxCell>
        <mxCell id="aOfRyr6UJCpSdVYeR-or-177" value="" style="rhombus;whiteSpace=wrap;html=1;" parent="1c1d494c118603dd-3" vertex="1">
          <mxGeometry x="50" y="330" width="40" height="14" as="geometry" />
        </mxCell>
        <mxCell id="aOfRyr6UJCpSdVYeR-or-180" style="edgeStyle=orthogonalEdgeStyle;rounded=0;orthogonalLoop=1;jettySize=auto;html=1;exitX=0;exitY=0.5;exitDx=0;exitDy=0;entryX=0.5;entryY=0.833;entryDx=0;entryDy=0;entryPerimeter=0;" parent="1c1d494c118603dd-3" source="aOfRyr6UJCpSdVYeR-or-42" target="aOfRyr6UJCpSdVYeR-or-60" edge="1">
          <mxGeometry relative="1" as="geometry" />
        </mxCell>
        <mxCell id="1c1d494c118603dd-4" value="Analytics Database" style="swimlane;html=1;startSize=20;" parent="1c1d494c118603dd-1" vertex="1">
          <mxGeometry x="500" y="20" width="250" height="1250" as="geometry" />
        </mxCell>
        <mxCell id="aOfRyr6UJCpSdVYeR-or-41" value="Get Device Data" style="rounded=1;whiteSpace=wrap;html=1;shadow=0;comic=0;labelBackgroundColor=none;strokeWidth=1;fontFamily=Verdana;fontSize=12;align=center;arcSize=50;" parent="1c1d494c118603dd-4" vertex="1">
          <mxGeometry x="75" y="231" width="100" height="30" as="geometry" />
        </mxCell>
        <mxCell id="aOfRyr6UJCpSdVYeR-or-157" value="Get Recommendations for Device" style="rounded=1;whiteSpace=wrap;html=1;shadow=0;comic=0;labelBackgroundColor=none;strokeWidth=1;fontFamily=Verdana;fontSize=12;align=center;arcSize=50;" parent="1c1d494c118603dd-4" vertex="1">
          <mxGeometry x="46.25" y="880" width="157.5" height="30" as="geometry" />
        </mxCell>
        <mxCell id="aOfRyr6UJCpSdVYeR-or-168" value="Mark Recommendations as Viewed" style="rounded=1;whiteSpace=wrap;html=1;shadow=0;comic=0;labelBackgroundColor=none;strokeWidth=1;fontFamily=Verdana;fontSize=12;align=center;arcSize=50;" parent="1c1d494c118603dd-4" vertex="1">
          <mxGeometry x="40" y="1012" width="170" height="30" as="geometry" />
        </mxCell>
        <mxCell id="aOfRyr6UJCpSdVYeR-or-1" value="Registration API" style="swimlane;html=1;startSize=20;" parent="1c1d494c118603dd-1" vertex="1">
          <mxGeometry x="750" y="20" width="250" height="1250" as="geometry" />
        </mxCell>
        <mxCell id="aOfRyr6UJCpSdVYeR-or-46" style="edgeStyle=orthogonalEdgeStyle;rounded=0;orthogonalLoop=1;jettySize=auto;html=1;exitX=1;exitY=0.5;exitDx=0;exitDy=0;" parent="aOfRyr6UJCpSdVYeR-or-1" source="aOfRyr6UJCpSdVYeR-or-34" edge="1">
          <mxGeometry relative="1" as="geometry">
            <mxPoint x="220" y="155" as="targetPoint" />
          </mxGeometry>
        </mxCell>
        <mxCell id="aOfRyr6UJCpSdVYeR-or-34" value="Get Username" style="rounded=1;whiteSpace=wrap;html=1;shadow=0;comic=0;labelBackgroundColor=none;strokeWidth=1;fontFamily=Verdana;fontSize=12;align=center;arcSize=50;" parent="aOfRyr6UJCpSdVYeR-or-1" vertex="1">
          <mxGeometry x="75" y="140" width="100" height="30" as="geometry" />
        </mxCell>
        <mxCell id="aOfRyr6UJCpSdVYeR-or-40" value="Get Devices" style="rounded=1;whiteSpace=wrap;html=1;shadow=0;comic=0;labelBackgroundColor=none;strokeWidth=1;fontFamily=Verdana;fontSize=12;align=center;arcSize=50;" parent="aOfRyr6UJCpSdVYeR-or-1" vertex="1">
          <mxGeometry x="75" y="231" width="100" height="30" as="geometry" />
        </mxCell>
        <mxCell id="aOfRyr6UJCpSdVYeR-or-45" value="" style="html=1;points=[];perimeter=orthogonalPerimeter;fillColor=strokeColor;rotation=-180;" parent="aOfRyr6UJCpSdVYeR-or-1" vertex="1">
          <mxGeometry x="220" y="115" width="5" height="80" as="geometry" />
        </mxCell>
        <mxCell id="aOfRyr6UJCpSdVYeR-or-47" style="edgeStyle=orthogonalEdgeStyle;rounded=0;orthogonalLoop=1;jettySize=auto;html=1;exitX=0;exitY=0.238;exitDx=0;exitDy=0;entryX=1;entryY=0.5;entryDx=0;entryDy=0;exitPerimeter=0;" parent="aOfRyr6UJCpSdVYeR-or-1" source="aOfRyr6UJCpSdVYeR-or-45" target="aOfRyr6UJCpSdVYeR-or-40" edge="1">
          <mxGeometry relative="1" as="geometry" />
        </mxCell>
        <mxCell id="aOfRyr6UJCpSdVYeR-or-37" style="edgeStyle=orthogonalEdgeStyle;rounded=0;orthogonalLoop=1;jettySize=auto;html=1;exitX=1;exitY=0.5;exitDx=0;exitDy=0;entryX=0;entryY=0.5;entryDx=0;entryDy=0;" parent="1c1d494c118603dd-1" source="aOfRyr6UJCpSdVYeR-or-33" target="aOfRyr6UJCpSdVYeR-or-34" edge="1">
          <mxGeometry relative="1" as="geometry">
            <mxPoint x="820" y="175" as="targetPoint" />
          </mxGeometry>
        </mxCell>
        <mxCell id="aOfRyr6UJCpSdVYeR-or-43" style="edgeStyle=orthogonalEdgeStyle;rounded=0;orthogonalLoop=1;jettySize=auto;html=1;exitX=0;exitY=0.5;exitDx=0;exitDy=0;entryX=1;entryY=0.5;entryDx=0;entryDy=0;" parent="1c1d494c118603dd-1" source="aOfRyr6UJCpSdVYeR-or-40" target="aOfRyr6UJCpSdVYeR-or-41" edge="1">
          <mxGeometry relative="1" as="geometry" />
        </mxCell>
        <mxCell id="aOfRyr6UJCpSdVYeR-or-44" style="edgeStyle=orthogonalEdgeStyle;rounded=0;orthogonalLoop=1;jettySize=auto;html=1;exitX=0;exitY=0.5;exitDx=0;exitDy=0;entryX=1;entryY=0.5;entryDx=0;entryDy=0;" parent="1c1d494c118603dd-1" source="aOfRyr6UJCpSdVYeR-or-41" target="aOfRyr6UJCpSdVYeR-or-42" edge="1">
          <mxGeometry relative="1" as="geometry" />
        </mxCell>
        <mxCell id="aOfRyr6UJCpSdVYeR-or-74" style="edgeStyle=orthogonalEdgeStyle;rounded=0;orthogonalLoop=1;jettySize=auto;html=1;exitX=0;exitY=0.5;exitDx=0;exitDy=0;entryX=1;entryY=0.5;entryDx=0;entryDy=0;" parent="1c1d494c118603dd-1" source="aOfRyr6UJCpSdVYeR-or-65" target="aOfRyr6UJCpSdVYeR-or-72" edge="1">
          <mxGeometry relative="1" as="geometry" />
        </mxCell>
        <mxCell id="aOfRyr6UJCpSdVYeR-or-86" style="edgeStyle=orthogonalEdgeStyle;rounded=0;orthogonalLoop=1;jettySize=auto;html=1;exitX=0;exitY=0.5;exitDx=0;exitDy=0;entryX=0;entryY=0.5;entryDx=0;entryDy=0;" parent="1c1d494c118603dd-1" source="aOfRyr6UJCpSdVYeR-or-81" target="60571a20871a0731-5" edge="1">
          <mxGeometry relative="1" as="geometry">
            <Array as="points">
              <mxPoint x="40" y="537" />
              <mxPoint x="40" y="1210" />
            </Array>
          </mxGeometry>
        </mxCell>
        <mxCell id="aOfRyr6UJCpSdVYeR-or-158" value="[No Usage Warnings]" style="edgeLabel;html=1;align=center;verticalAlign=middle;resizable=0;points=[];" parent="aOfRyr6UJCpSdVYeR-or-86" vertex="1" connectable="0">
          <mxGeometry x="0.541" relative="1" as="geometry">
            <mxPoint as="offset" />
          </mxGeometry>
        </mxCell>
        <mxCell id="aOfRyr6UJCpSdVYeR-or-93" style="edgeStyle=orthogonalEdgeStyle;rounded=0;orthogonalLoop=1;jettySize=auto;html=1;exitX=1;exitY=0.5;exitDx=0;exitDy=0;entryX=0;entryY=0.5;entryDx=0;entryDy=0;" parent="1c1d494c118603dd-1" source="aOfRyr6UJCpSdVYeR-or-88" target="aOfRyr6UJCpSdVYeR-or-94" edge="1">
          <mxGeometry relative="1" as="geometry">
            <mxPoint x="330" y="717" as="targetPoint" />
          </mxGeometry>
        </mxCell>
        <mxCell id="aOfRyr6UJCpSdVYeR-or-95" value="[View Device Graph]" style="edgeLabel;html=1;align=center;verticalAlign=middle;resizable=0;points=[];" parent="aOfRyr6UJCpSdVYeR-or-93" vertex="1" connectable="0">
          <mxGeometry x="-0.392" y="-2" relative="1" as="geometry">
            <mxPoint x="17" y="-2" as="offset" />
          </mxGeometry>
        </mxCell>
        <mxCell id="aOfRyr6UJCpSdVYeR-or-97" style="edgeStyle=orthogonalEdgeStyle;rounded=0;orthogonalLoop=1;jettySize=auto;html=1;exitX=0.5;exitY=1;exitDx=0;exitDy=0;entryX=0;entryY=0.5;entryDx=0;entryDy=0;" parent="1c1d494c118603dd-1" source="aOfRyr6UJCpSdVYeR-or-88" target="aOfRyr6UJCpSdVYeR-or-98" edge="1">
          <mxGeometry relative="1" as="geometry">
            <mxPoint x="174.77777777777783" y="800" as="targetPoint" />
          </mxGeometry>
        </mxCell>
        <mxCell id="aOfRyr6UJCpSdVYeR-or-99" value="[View Warning Message]" style="edgeLabel;html=1;align=center;verticalAlign=middle;resizable=0;points=[];" parent="aOfRyr6UJCpSdVYeR-or-97" vertex="1" connectable="0">
          <mxGeometry x="0.0397" y="3" relative="1" as="geometry">
            <mxPoint as="offset" />
          </mxGeometry>
        </mxCell>
        <mxCell id="aOfRyr6UJCpSdVYeR-or-105" style="edgeStyle=orthogonalEdgeStyle;rounded=0;orthogonalLoop=1;jettySize=auto;html=1;exitX=0;exitY=0.5;exitDx=0;exitDy=0;entryX=1;entryY=0.5;entryDx=0;entryDy=0;" parent="1c1d494c118603dd-1" source="aOfRyr6UJCpSdVYeR-or-102" target="aOfRyr6UJCpSdVYeR-or-103" edge="1">
          <mxGeometry relative="1" as="geometry" />
        </mxCell>
        <mxCell id="aOfRyr6UJCpSdVYeR-or-159" style="edgeStyle=orthogonalEdgeStyle;rounded=0;orthogonalLoop=1;jettySize=auto;html=1;exitX=0.5;exitY=1;exitDx=0;exitDy=0;entryX=0;entryY=0.5;entryDx=0;entryDy=0;" parent="1c1d494c118603dd-1" source="aOfRyr6UJCpSdVYeR-or-103" target="aOfRyr6UJCpSdVYeR-or-157" edge="1">
          <mxGeometry relative="1" as="geometry" />
        </mxCell>
        <mxCell id="aOfRyr6UJCpSdVYeR-or-161" style="edgeStyle=orthogonalEdgeStyle;rounded=0;orthogonalLoop=1;jettySize=auto;html=1;exitX=0.5;exitY=1;exitDx=0;exitDy=0;entryX=1;entryY=0.5;entryDx=0;entryDy=0;" parent="1c1d494c118603dd-1" source="aOfRyr6UJCpSdVYeR-or-157" target="aOfRyr6UJCpSdVYeR-or-160" edge="1">
          <mxGeometry relative="1" as="geometry" />
        </mxCell>
        <mxCell id="aOfRyr6UJCpSdVYeR-or-163" style="edgeStyle=orthogonalEdgeStyle;rounded=0;orthogonalLoop=1;jettySize=auto;html=1;exitX=0;exitY=0.5;exitDx=0;exitDy=0;entryX=1;entryY=0.5;entryDx=0;entryDy=0;" parent="1c1d494c118603dd-1" source="aOfRyr6UJCpSdVYeR-or-160" target="aOfRyr6UJCpSdVYeR-or-162" edge="1">
          <mxGeometry relative="1" as="geometry" />
        </mxCell>
        <mxCell id="aOfRyr6UJCpSdVYeR-or-172" style="edgeStyle=orthogonalEdgeStyle;rounded=0;orthogonalLoop=1;jettySize=auto;html=1;exitX=0.5;exitY=1;exitDx=0;exitDy=0;entryX=1;entryY=0.5;entryDx=0;entryDy=0;" parent="1c1d494c118603dd-1" source="aOfRyr6UJCpSdVYeR-or-168" target="aOfRyr6UJCpSdVYeR-or-170" edge="1">
          <mxGeometry relative="1" as="geometry" />
        </mxCell>
        <mxCell id="aOfRyr6UJCpSdVYeR-or-173" style="edgeStyle=orthogonalEdgeStyle;rounded=0;orthogonalLoop=1;jettySize=auto;html=1;exitX=0.5;exitY=1;exitDx=0;exitDy=0;entryX=0;entryY=0.5;entryDx=0;entryDy=0;" parent="1c1d494c118603dd-1" source="aOfRyr6UJCpSdVYeR-or-164" target="aOfRyr6UJCpSdVYeR-or-170" edge="1">
          <mxGeometry relative="1" as="geometry" />
        </mxCell>
        <mxCell id="aOfRyr6UJCpSdVYeR-or-176" value="[Do Not Select a Recommendation]" style="edgeLabel;html=1;align=center;verticalAlign=middle;resizable=0;points=[];" parent="aOfRyr6UJCpSdVYeR-or-173" vertex="1" connectable="0">
          <mxGeometry x="-0.6811" y="-2" relative="1" as="geometry">
            <mxPoint x="29" y="14" as="offset" />
          </mxGeometry>
        </mxCell>
        <mxCell id="aOfRyr6UJCpSdVYeR-or-174" style="edgeStyle=orthogonalEdgeStyle;rounded=0;orthogonalLoop=1;jettySize=auto;html=1;exitX=1;exitY=0.5;exitDx=0;exitDy=0;entryX=0;entryY=0.5;entryDx=0;entryDy=0;" parent="1c1d494c118603dd-1" source="aOfRyr6UJCpSdVYeR-or-164" target="aOfRyr6UJCpSdVYeR-or-168" edge="1">
          <mxGeometry relative="1" as="geometry" />
        </mxCell>
        <mxCell id="aOfRyr6UJCpSdVYeR-or-175" value="[Select a Recommendation]" style="edgeLabel;html=1;align=center;verticalAlign=middle;resizable=0;points=[];" parent="aOfRyr6UJCpSdVYeR-or-174" vertex="1" connectable="0">
          <mxGeometry x="-0.2042" relative="1" as="geometry">
            <mxPoint x="-1" as="offset" />
          </mxGeometry>
        </mxCell>
        <mxCell id="aOfRyr6UJCpSdVYeR-or-30" value="Scheduling API" style="swimlane;html=1;startSize=20;" parent="1" vertex="1">
          <mxGeometry x="1040" y="40" width="250" height="1250" as="geometry" />
        </mxCell>
        <mxCell id="aOfRyr6UJCpSdVYeR-or-52" style="edgeStyle=orthogonalEdgeStyle;rounded=0;orthogonalLoop=1;jettySize=auto;html=1;exitX=0.5;exitY=1;exitDx=0;exitDy=0;entryX=0.5;entryY=0;entryDx=0;entryDy=0;" parent="aOfRyr6UJCpSdVYeR-or-30" source="aOfRyr6UJCpSdVYeR-or-48" target="aOfRyr6UJCpSdVYeR-or-51" edge="1">
          <mxGeometry relative="1" as="geometry" />
        </mxCell>
        <mxCell id="aOfRyr6UJCpSdVYeR-or-48" value="Check if Audit is Available" style="rounded=1;whiteSpace=wrap;html=1;shadow=0;comic=0;labelBackgroundColor=none;strokeWidth=1;fontFamily=Verdana;fontSize=12;align=center;arcSize=50;" parent="aOfRyr6UJCpSdVYeR-or-30" vertex="1">
          <mxGeometry x="62.5" y="130" width="125" height="30" as="geometry" />
        </mxCell>
        <mxCell id="aOfRyr6UJCpSdVYeR-or-51" value="" style="rhombus;whiteSpace=wrap;html=1;" parent="aOfRyr6UJCpSdVYeR-or-30" vertex="1">
          <mxGeometry x="105" y="206" width="40" height="14" as="geometry" />
        </mxCell>
        <mxCell id="aOfRyr6UJCpSdVYeR-or-49" style="edgeStyle=orthogonalEdgeStyle;rounded=0;orthogonalLoop=1;jettySize=auto;html=1;exitX=-0.4;exitY=0.625;exitDx=0;exitDy=0;entryX=0;entryY=0.5;entryDx=0;entryDy=0;exitPerimeter=0;" parent="1" source="aOfRyr6UJCpSdVYeR-or-45" target="aOfRyr6UJCpSdVYeR-or-48" edge="1">
          <mxGeometry relative="1" as="geometry" />
        </mxCell>
        <mxCell id="aOfRyr6UJCpSdVYeR-or-181" style="edgeStyle=orthogonalEdgeStyle;rounded=0;orthogonalLoop=1;jettySize=auto;html=1;exitX=1;exitY=0.5;exitDx=0;exitDy=0;entryX=1;entryY=0.5;entryDx=0;entryDy=0;" parent="1" source="aOfRyr6UJCpSdVYeR-or-51" target="aOfRyr6UJCpSdVYeR-or-177" edge="1">
          <mxGeometry relative="1" as="geometry" />
        </mxCell>
        <mxCell id="aOfRyr6UJCpSdVYeR-or-182" value="[Audit Not Available]" style="edgeLabel;html=1;align=center;verticalAlign=middle;resizable=0;points=[];" parent="aOfRyr6UJCpSdVYeR-or-181" vertex="1" connectable="0">
          <mxGeometry x="0.1095" y="2" relative="1" as="geometry">
            <mxPoint x="109" y="-2" as="offset" />
          </mxGeometry>
        </mxCell>
        <mxCell id="aOfRyr6UJCpSdVYeR-or-183" style="edgeStyle=orthogonalEdgeStyle;rounded=0;orthogonalLoop=1;jettySize=auto;html=1;exitX=0;exitY=0.5;exitDx=0;exitDy=0;entryX=1;entryY=0.5;entryDx=0;entryDy=0;" parent="1" source="aOfRyr6UJCpSdVYeR-or-51" target="aOfRyr6UJCpSdVYeR-or-55" edge="1">
          <mxGeometry relative="1" as="geometry">
            <Array as="points">
              <mxPoint x="1110" y="253" />
              <mxPoint x="1110" y="335" />
            </Array>
          </mxGeometry>
        </mxCell>
        <mxCell id="aOfRyr6UJCpSdVYeR-or-184" value="[Audit Results Available]" style="edgeLabel;html=1;align=center;verticalAlign=middle;resizable=0;points=[];" parent="aOfRyr6UJCpSdVYeR-or-183" vertex="1" connectable="0">
          <mxGeometry x="-0.044" y="4" relative="1" as="geometry">
            <mxPoint x="47" y="-4" as="offset" />
          </mxGeometry>
        </mxCell>
      </root>
    </mxGraphModel>
  </diagram>
</mxfile>
